<?xml version="1.0" encoding="iso-8859-1"?>
<!-- Generator: Adobe Illustrator 19.0.0, SVG Export Plug-In . SVG Version: 6.00 Build 0)  -->
<svg version="1.1" id="Capa_1" xmlns="http://www.w3.org/2000/svg" xmlns:xlink="http://www.w3.org/1999/xlink" x="0px" y="0px"
	 viewBox="0 0 512.002 512.002" style="enable-background:new 0 0 512.002 512.002;" xml:space="preserve">
<g>
	<g>
		<g>
			<path d="M189.202,391.056c13.33,13.329,34.942,13.329,48.271-0.001c13.33-13.33,13.33-34.942,0-48.271
				c-13.33-13.33-34.941-13.33-48.271-0.001c-6.463,6.369-10.102,15.063-10.102,24.137S182.739,384.688,189.202,391.056z
				 M201.268,354.849c6.666-6.664,17.473-6.662,24.137,0.004c6.664,6.666,6.662,17.473-0.004,24.137
				c-6.751,6.45-17.381,6.45-24.132,0c-3.202-3.201-5.001-7.543-5.001-12.07S198.066,358.05,201.268,354.849z"/>
			<path d="M179.457,302.924c1.153,4.569,5.791,7.338,10.359,6.187c22.927-5.786,47.19,1.296,63.403,18.509
				c16.039,16.87,22.964,40.435,18.603,63.3c-0.416,2.226,0.069,4.526,1.35,6.394c1.28,1.868,3.251,3.15,5.477,3.564
				c0.521,0.094,1.049,0.143,1.579,0.145c4.104-0.004,7.625-2.929,8.38-6.963c5.374-28.285-3.22-57.425-23.083-78.268
				c-20.434-21.66-51-30.55-79.863-23.228c-2.197,0.55-4.086,1.951-5.249,3.894S178.904,300.728,179.457,302.924z"/>
			<path d="M322.484,400.998c0.323,0.041,0.648,0.061,0.973,0.06c4.335-0.007,7.975-3.262,8.465-7.569
				c4.716-39.504-8.6-79.033-36.258-107.631c-28.282-29.265-68.994-43.009-109.227-36.873c-4.656,0.73-7.839,5.097-7.108,9.754
				c0.731,4.656,5.097,7.839,9.754,7.108c34.754-5.316,69.927,6.567,94.336,31.872c24.106,24.948,35.701,59.422,31.573,93.867
				C314.477,396.249,317.824,400.454,322.484,400.998z"/>
			<path d="M509.236,224.102L271.122,5.742c-8.691-7.69-21.769-7.635-30.396,0.128L102.401,132.727V72.524
				c0-4.713-3.821-8.533-8.533-8.533c-4.713,0-8.533,3.82-8.533,8.533v75.853L2.766,224.102c-1.668,1.53-2.66,3.66-2.758,5.921
				c-0.098,2.261,0.707,4.469,2.237,6.137c1.53,1.668,3.66,2.66,5.921,2.758c2.261,0.098,4.469-0.707,6.137-2.237L252.11,18.593
				c2.125-2.011,5.433-2.071,7.629-0.137L497.699,236.68c3.473,3.186,8.872,2.953,12.058-0.521
				C512.943,232.686,512.709,227.287,509.236,224.102z"/>
			<path d="M426.668,221.857c-4.713,0-8.533,3.82-8.533,8.533v261.402c0.067,1.658-1.218,3.058-2.876,3.132H96.743
				c-1.657-0.074-2.943-1.474-2.876-3.132V230.391c0-4.713-3.821-8.533-8.533-8.533s-8.533,3.82-8.533,8.533v261.402
				c-0.057,11.079,8.864,20.114,19.942,20.198h318.515c11.079-0.085,19.999-9.119,19.942-20.198V230.391
				C435.201,225.678,431.38,221.857,426.668,221.857z"/>
		</g>
	</g>
</g>
<g>
</g>
<g>
</g>
<g>
</g>
<g>
</g>
<g>
</g>
<g>
</g>
<g>
</g>
<g>
</g>
<g>
</g>
<g>
</g>
<g>
</g>
<g>
</g>
<g>
</g>
<g>
</g>
<g>
</g>
</svg>
