<?xml version="1.0" encoding="UTF-8" standalone="no"?>
<!DOCTYPE svg PUBLIC "-//W3C//DTD SVG 1.1//EN" "http://www.w3.org/Graphics/SVG/1.1/DTD/svg11.dtd">
<svg xmlns:xlink="http://www.w3.org/1999/xlink" xmlns:serif="http://www.serif.com/" width="100%" height="100%"
     viewBox="0 0 512 512" version="1.1" xmlns="http://www.w3.org/2000/svg" xml:space="preserve"
     style="fill-rule:evenodd;clip-rule:evenodd;stroke-linejoin:round;stroke-miterlimit:1.41421;">
    <circle cx="256.578" cy="256" r="252.235" style="fill:rgb(63,81,181);"/>
  <g transform="matrix(1.39581,0,0,1.39581,-96.6866,-95.6579)">
        <g transform="matrix(0.71643,0,0,0.71643,69.2692,68.5322)">
            <path
              d="M14.13,325.757L106.222,152.615L140.674,182.074L36.097,378.535C26.878,361.996 19.466,344.314 14.13,325.757Z"
              style="fill:white;"/>
        </g>
    <g transform="matrix(0.71643,0,0,0.71643,69.2692,68.5322)">
            <path
              d="M140.674,182.074L89.991,277.288L76.835,343.276L36.097,378.535C26.796,361.813 19.413,344.066 14.13,325.757L49.799,200.653L106.222,152.615C117.706,162.435 129.19,172.254 140.674,182.074ZM16.276,325.98C21.115,342.636 27.752,358.794 35.942,374.084L36.072,374.326L138.154,182.551L106.817,155.756C76.637,212.497 46.456,269.239 16.276,325.98Z"
              style="fill:rgb(63,81,181);fill-rule:nonzero;"/>
        </g>
    <g transform="matrix(0.71643,0,0,0.71643,69.2692,68.5322)">
            <path
              d="M28.27,363.295L116.872,187.692C116.872,187.692 231.415,53.946 412.099,139.688L507.997,235.587C508.538,242.32 508.813,249.128 508.813,256C508.813,395.212 395.79,508.235 256.578,508.235C155.725,508.235 68.617,448.917 28.27,363.295Z"
              style="fill:rgb(50,65,145);"/>
        </g>
    <g>
            <path
              d="M267.636,316.061C253.129,331.607 234.3,341 213.734,341C167.925,341 130.734,294.399 130.734,237C130.734,179.601 167.925,133 213.734,133C236.589,133 257.298,144.6 272.314,163.353C242.48,172.154 220.398,203.377 220.398,240.5C220.398,275.654 240.2,305.519 267.636,316.061Z"
              style="fill:white;"/>
      <path
        d="M214.005,132.286C229.355,132.377 244.536,137.946 256.894,147.271C262.78,151.713 268.055,156.942 272.695,162.685C272.695,162.685 272.916,162.863 273,163.152C273.102,163.499 272.908,163.833 272.517,164.038C254.385,169.417 239.191,183.488 230.467,200.655C215.263,230.572 218.626,269.58 240.481,295.512C247.835,304.237 257.3,311.29 267.894,315.394C267.894,315.394 268.607,315.829 268.158,316.55C257.282,328.172 243.257,336.966 227.793,340.242C208.066,344.422 186.901,339.081 170.492,326.667C150.706,311.699 137.978,288.403 132.779,263.748C126.468,233.817 130.724,201.38 146.319,174.93C156.189,158.19 170.908,143.839 189.297,136.823C197.165,133.82 205.539,132.269 214.005,132.286ZM213.469,133.716C198.718,133.803 184.231,138.987 172.208,147.836C157.029,159.008 145.996,175.274 139.375,192.751C125.717,228.808 129.387,271.584 150.769,303.459C160.541,318.026 174.259,330.322 191.262,336.378C202.74,340.467 215.334,341.376 227.269,338.891C242.157,335.792 255.726,327.431 266.265,316.47L266.39,316.339C249.724,309.563 236.317,295.808 228.415,279.424C215.397,252.432 216.913,218.659 233.081,193.177C241.957,179.187 255.352,167.953 271.054,162.99L271.09,162.978C257.114,145.883 236.564,133.85 213.999,133.716C213.822,133.715 213.645,133.715 213.469,133.716Z"
        style="fill:rgb(63,81,181);fill-rule:nonzero;"/>
      <path
        d="M295.42,317.883C281.164,332.338 263.016,341 243.266,341C197.458,341 160.266,294.399 160.266,237C160.266,179.601 197.458,133 243.266,133C263.016,133 281.164,141.662 295.42,156.117C260.346,163.27 233.77,196.786 233.77,237C233.77,277.214 260.346,310.73 295.42,317.883Z"
        style="fill:white;"/>
      <path
        d="M243.5,132.285C262.756,132.385 281.233,141.091 295.083,154.768C295.253,154.936 295.423,155.105 295.592,155.275C295.596,155.279 295.924,155.609 295.928,155.614C296.137,155.884 296.133,156.174 296.133,156.174L295.843,156.694C295.246,156.958 294.586,157.022 293.942,157.168C273.195,161.953 255.14,176.652 244.861,195.584C231.302,220.56 231.101,252.448 244.457,277.663C254.868,297.315 273.477,312.644 295.564,317.183L296.044,317.535L296.092,318.128L295.928,318.386C285.172,329.264 271.517,337.411 256.557,340.401C236.929,344.322 215.954,338.801 199.808,326.503C180.126,311.511 167.494,288.328 162.311,263.748C156,233.817 160.256,201.38 175.851,174.93C185.721,158.19 200.441,143.839 218.829,136.823C226.689,133.824 235.156,132.271 243.5,132.285ZM243.001,133.716C228.25,133.803 213.764,138.987 201.74,147.836C186.719,158.893 175.748,174.969 169.123,192.185C157.495,222.405 158.18,257.265 171.185,286.819C180.745,308.541 197.36,327.739 220.065,336.114C237.08,342.389 256.517,341.399 273.136,333.256C280.82,329.491 287.801,324.366 293.91,318.38L293.984,318.307C293.657,318.234 293.331,318.158 293.005,318.081C277.509,314.361 263.229,305.159 252.877,292.768C235.981,272.544 229.461,244.168 235.042,218.125C239.539,197.136 252.049,177.741 269.903,165.972C277.189,161.17 285.328,157.662 293.829,155.728L293.984,155.693C280.623,142.532 262.671,133.879 243.724,133.717C243.483,133.715 243.242,133.715 243.001,133.716Z"
        style="fill:rgb(63,81,181);fill-rule:nonzero;"/>
      <g transform="matrix(1,0,0,1.01961,-29.2008,-2.60784)">
                <path
                  d="M302,133C314.531,133 326.418,136.42 337.075,142.542C349.31,149.571 285.201,166.234 285.201,166.234L267,236.471L295.96,306.829C295.96,306.829 345.934,322.693 335.379,328.403C325.163,333.931 313.871,337 302,337C256.191,337 219,291.295 219,235C219,178.705 256.191,133 302,133Z"
                  style="fill:white;"/>
            </g>
      <g transform="matrix(1,0,0,1.01961,-29.2008,-2.60784)">
                <path
                  d="M302.297,132.297C314.449,132.375 326.397,135.701 336.932,141.648C338.147,142.333 339.402,143.216 339.342,144.679C339.242,147.146 336.666,148.484 334.907,149.566C326.482,154.749 316.716,157.58 307.069,160.631C300.255,162.786 293.394,164.775 286.496,166.62L285.792,166.807L267.753,236.421L296.5,306.262C308.987,310.285 321.72,314.15 332.769,321.164C335.53,322.917 339.342,325.612 336.83,328.211C335.786,329.291 334.234,329.824 332.796,330.522C308.729,342.221 278.604,338.981 256.193,320.964C230.996,300.707 218.283,267.58 218.283,235C218.283,213.274 223.756,191.446 235.489,172.644C249.501,150.189 273.359,132.464 301.729,132.297C301.918,132.297 302.107,132.297 302.297,132.297ZM301.735,133.704C287.153,133.789 272.782,138.789 260.904,147.245C245.85,157.962 234.843,173.644 228.188,190.219C214.173,225.124 217.395,266.815 237.627,298.061C249.038,315.686 266.516,330.455 288.485,334.934C304.222,338.142 321.221,335.369 335.086,327.758C337.154,326.588 334.171,323.328 328.531,320.366C318.229,314.957 307.06,311.144 295.88,307.543L295.295,307.092L266.335,236.734L266.305,236.298L284.506,166.061C284.687,165.67 284.864,165.625 285.016,165.555C298.5,162.027 312.074,158.076 324.865,152.849C329.233,151.064 333.973,149.459 337.076,146.133C337.164,146.038 337.25,145.941 337.331,145.84C337.392,145.765 337.451,145.687 337.507,145.608C338.651,143.974 334.892,142.053 331.934,140.628C322.727,136.192 312.553,133.77 302.29,133.704C302.105,133.703 301.92,133.703 301.735,133.704Z"
                  style="fill:rgb(63,81,181);fill-rule:nonzero;"/>
            </g>
      <path
        d="M302,133C347.809,133 385,179.601 385,237C385,294.399 347.809,341 302,341C256.191,341 219,294.399 219,237C219,179.601 256.191,133 302,133ZM302,172.589C331.335,172.589 355.151,202.123 355.151,238.5C355.151,274.877 331.335,304.411 302,304.411C272.665,304.411 248.849,274.877 248.849,238.5C248.849,202.123 272.665,172.589 302,172.589Z"
        style="fill:white;"/>
      <path
        d="M302.271,132.286C318.604,132.383 334.595,138.663 347.383,149.008C360.792,159.855 370.722,174.632 377.032,190.532C382.799,205.065 385.634,220.704 385.713,236.324C385.833,259.815 379.723,283.54 366.793,303.288C355.025,321.262 337.087,335.872 315.806,340.295C295.182,344.583 272.959,338.389 256.195,324.648C230.951,303.956 218.201,270.019 218.285,236.662C218.378,200.1 234.414,162.253 264.52,143.352C275.798,136.272 288.887,132.259 302.271,132.286ZM301.735,133.716C285.745,133.811 270.084,139.953 257.517,150.119C232.5,170.357 219.88,203.881 219.717,236.331C219.6,259.562 225.648,283.025 238.403,302.505C248.124,317.351 261.941,329.896 278.799,336.114C299.833,343.872 324.248,340.353 343.526,326.164C358.774,314.941 369.83,298.621 376.466,280.965C384.387,259.887 386.218,236.569 382.339,214.594C377.004,184.369 360.572,155.312 332.803,141.21C323.389,136.429 312.889,133.779 302.265,133.716C302.088,133.715 301.912,133.715 301.735,133.716ZM302.175,171.874C311.829,171.931 321.301,175.273 329.144,180.947C346.88,193.777 355.979,216.602 355.865,238.93C355.796,252.414 352.474,265.937 345.582,277.65C339.172,288.545 329.58,297.863 317.42,302.353C303.635,307.442 287.661,305.127 275.278,296.356C265.845,289.673 258.765,279.957 254.306,269.483C244.448,246.326 246.314,218.118 259.788,197.121C268.806,183.068 283.979,172.186 301.302,171.879C301.593,171.875 301.884,171.874 302.175,171.874ZM301.831,173.304C292.655,173.358 283.64,176.473 276.105,181.811C258.466,194.307 249.452,216.897 249.565,238.922C249.64,253.502 253.608,268.176 261.789,280.32C269.191,291.306 280.373,300.142 293.396,302.821C305.108,305.23 317.636,302.356 327.62,295.383C336.856,288.931 343.81,279.5 348.228,269.272C358.22,246.143 356.174,217.656 342.412,196.981C333.551,183.668 319.28,173.538 302.507,173.307C302.281,173.305 302.056,173.304 301.831,173.304Z"
        style="fill:rgb(63,81,181);fill-rule:nonzero;"/>
        </g>
    <g transform="matrix(0.71643,0,0,0.71643,69.2692,68.5322)">
            <path
              d="M503.253,308.868C498.845,329.502 491.911,349.204 482.79,367.635L384.306,182.237L420.144,152.617L503.253,308.868Z"
              style="fill:white;"/>
        </g>
    <g transform="matrix(0.71643,0,0,0.71643,69.2692,68.5322)">
            <path
              d="M419.452,153.135L420.144,151.617L428.888,169.057L503.46,307.915L503.253,308.868C498.914,329.085 492.08,348.728 483.003,367.203L482.79,367.635L481.91,368L434.725,277.152L392.721,198.078L387.817,190.637L383.066,180.24L385.105,181.577L393.312,194.928L482.709,363.22C490.792,346.196 497.016,328.032 501.091,309.409L501.144,309.162L429.802,171.284L419.452,153.135Z"
              style="fill:rgb(63,81,181);fill-rule:nonzero;"/>
        </g>
    </g>
</svg>
