<?xml version="1.0" encoding="utf-8"?>
<!-- Generator: Adobe Illustrator 16.0.0, SVG Export Plug-In . SVG Version: 6.00 Build 0)  -->
<!DOCTYPE svg PUBLIC "-//W3C//DTD SVG 1.1//EN" "http://www.w3.org/Graphics/SVG/1.1/DTD/svg11.dtd">
<svg version="1.1" id="Warstwa_1" xmlns="http://www.w3.org/2000/svg" xmlns:xlink="http://www.w3.org/1999/xlink" x="0px" y="0px"
	 width="198.425px" height="226.772px" viewBox="0 0 198.425 226.772" enable-background="new 0 0 198.425 226.772"
	 xml:space="preserve">
<polygon fill="#FFCA31" points="168.28,99.567 99.212,28.958 30.146,99.567 24.405,93.828 99.212,17.35 174.019,93.827 "/>
<g>
	<defs>
		<rect id="SVGID_1_" x="-400.788" y="-208.614" width="1000" height="700"/>
	</defs>
	<clipPath id="SVGID_2_">
		<use xlink:href="#SVGID_1_"  overflow="visible"/>
	</clipPath>
	<path clip-path="url(#SVGID_2_)" fill="#FFCA31" d="M126.534,136.837c0-15.089-12.231-27.321-27.321-27.321
		c-15.089,0-27.321,12.232-27.321,27.321s12.232,27.321,27.321,27.321C114.302,164.159,126.534,151.926,126.534,136.837"/>
	<path clip-path="url(#SVGID_2_)" fill="#5A7484" d="M99.212,5.74L4.566,102.501l5.803,5.676l8.36-8.547l7.39,7.39v105.777h54.623
		c-2.156-2.341-3.872-5.091-5.021-8.118H34.237v-97.685l64.976-66.427l64.977,66.427v97.685H99.212
		c-4.898,0-8.884-3.984-8.884-8.883c0-0.437,0.011-0.889,0.021-1.36c0.145-6.308,0.363-15.839-16.208-32.408
		c-13.823-13.823-13.823-36.316,0-50.141c6.697-6.696,15.6-10.384,25.071-10.384s18.374,3.688,25.071,10.384
		c13.823,13.824,13.823,36.317,0,50.141c-16.571,16.569-16.353,26.101-16.209,32.408c0.011,0.472,0.021,2.126,0.021,2.126h8.118
		c0,0-0.012-1.776-0.024-2.312c-0.118-5.22-0.282-12.368,13.833-26.483c16.989-16.988,16.989-44.631,0-61.619
		c-8.229-8.23-19.172-12.763-30.811-12.763s-22.581,4.533-30.81,12.763c-16.989,16.988-16.989,44.63,0,61.619
		c14.114,14.115,13.951,21.264,13.832,26.483c-0.013,0.535-0.023,1.05-0.023,1.546c0,9.374,7.626,17.001,17,17.001h73.094V107.021
		l7.39-7.391l8.36,8.547l5.803-5.676L99.212,5.74z M168.28,99.567L99.212,28.958L30.146,99.567l-5.741-5.74L99.212,17.35
		l74.807,76.477L168.28,99.567z"/>
	<path clip-path="url(#SVGID_2_)" fill="#5A7484" d="M99.212,85.268c1.363,0,2.715,0.068,4.06,0.171v-8.137
		c-1.346-0.09-2.697-0.152-4.06-0.152c-1.36,0-2.712,0.062-4.059,0.152v8.137C96.499,85.336,97.85,85.268,99.212,85.268"/>
	<path clip-path="url(#SVGID_2_)" fill="#5A7484" d="M77.005,90.255l-4.067-7.042c-2.425,1.188-4.777,2.535-7.033,4.053l4.077,7.059
		C72.223,92.781,74.567,91.417,77.005,90.255"/>
	<path clip-path="url(#SVGID_2_)" fill="#5A7484" d="M56.677,107.593l-7.059-4.075c-1.524,2.252-2.877,4.6-4.07,7.023l7.043,4.066
		C53.758,112.172,55.127,109.83,56.677,107.593"/>
	<path clip-path="url(#SVGID_2_)" fill="#5A7484" d="M128.444,94.325l4.075-7.059c-2.255-1.519-4.607-2.866-7.032-4.054
		l-4.066,7.043C123.858,91.417,126.203,92.781,128.444,94.325"/>
	<path clip-path="url(#SVGID_2_)" fill="#5A7484" d="M145.834,114.607l7.043-4.066c-1.193-2.423-2.547-4.771-4.07-7.023l-7.06,4.075
		C143.297,109.83,144.667,112.172,145.834,114.607"/>
</g>
</svg>
